<?xml version="1.0" encoding="UTF-8" standalone="no"?>
<!-- Created with Inkscape (http://www.inkscape.org/) -->

<svg
   version="1.1"
   id="svg1"
   width="645.33331"
   height="474.66666"
   viewBox="0 0 645.33331 474.66666"
   sodipodi:docname="DAFC_LOGOicon-3.eps"
   xmlns:inkscape="http://www.inkscape.org/namespaces/inkscape"
   xmlns:sodipodi="http://sodipodi.sourceforge.net/DTD/sodipodi-0.dtd"
   xmlns="http://www.w3.org/2000/svg"
   xmlns:svg="http://www.w3.org/2000/svg">
  <defs
     id="defs1">
    <linearGradient
       x1="0"
       y1="0"
       x2="1"
       y2="0"
       gradientUnits="userSpaceOnUse"
       gradientTransform="matrix(17485.4,149.5,-149.5,17485.4,-973.549,2464.56)"
       spreadMethod="pad"
       id="linearGradient6">
      <stop
         style="stop-opacity:1;stop-color:#9a6126"
         offset="0"
         id="stop1" />
      <stop
         style="stop-opacity:1;stop-color:#9a6126"
         offset="0.06"
         id="stop2" />
      <stop
         style="stop-opacity:1;stop-color:#ecb33e"
         offset="0.27"
         id="stop3" />
      <stop
         style="stop-opacity:1;stop-color:#f6d986"
         offset="0.51"
         id="stop4" />
      <stop
         style="stop-opacity:1;stop-color:#f8d280"
         offset="0.8"
         id="stop5" />
      <stop
         style="stop-opacity:1;stop-color:#e9af59"
         offset="1"
         id="stop6" />
    </linearGradient>
    <clipPath
       clipPathUnits="userSpaceOnUse"
       id="clipPath6">
      <path
         d="m 2393.75,3547.54 c -200.7,-355.27 -514.49,-633.59 -886.29,-783.99 -210.62,-84.41 -429.61,-126.71 -653.401,-126.71 -283.707,0 -557.028,66.91 -810.5082,200.19 -9.4102,5 -19.8008,4.22 -26.2813,-2.58 -8.12887,-7.3 -10.62887,-18.9 -7.49997,-27.89 C 154.648,2453.36 407.66,2144.14 726.559,1939.84 V 1443.63 H 4116.37 v 500.32 c 317.69,205.5 572.38,516.09 714.37,869.8 2.62,9.41 0.9,20.59 -6.79,27.38 -7.5,7.5 -16.8,9.22 -27.58,4.53 -252.03,-136.91 -538.52,-208.82 -824.92,-208.82 -218.91,0 -436.41,40.89 -641.22,122.69 -376.17,149.42 -693.39,429.53 -896.99,788.01 -3.28,7.11 -11.4,10.43 -19.61,10.43 -8.16,0 -16.6,-3.32 -19.88,-10.43"
         transform="translate(0,2.5000001e-5)"
         id="path6" />
    </clipPath>
    <linearGradient
       x1="0"
       y1="0"
       x2="1"
       y2="0"
       gradientUnits="userSpaceOnUse"
       gradientTransform="matrix(17485.4,149.4,-149.4,17485.4,-973.649,2471.8)"
       spreadMethod="pad"
       id="linearGradient12">
      <stop
         style="stop-opacity:1;stop-color:#9a6126"
         offset="0"
         id="stop7" />
      <stop
         style="stop-opacity:1;stop-color:#9a6126"
         offset="0.06"
         id="stop8" />
      <stop
         style="stop-opacity:1;stop-color:#ecb33e"
         offset="0.27"
         id="stop9" />
      <stop
         style="stop-opacity:1;stop-color:#f6d986"
         offset="0.51"
         id="stop10" />
      <stop
         style="stop-opacity:1;stop-color:#f8d280"
         offset="0.8"
         id="stop11" />
      <stop
         style="stop-opacity:1;stop-color:#e9af59"
         offset="1"
         id="stop12" />
    </linearGradient>
    <clipPath
       clipPathUnits="userSpaceOnUse"
       id="clipPath12">
      <path
         d="m 2393.75,3547.54 c -200.7,-355.27 -514.49,-633.59 -886.29,-783.99 -210.62,-84.41 -429.61,-126.71 -653.401,-126.71 -283.707,0 -557.028,66.91 -810.5082,200.19 -9.4102,5 -19.8008,4.22 -26.2813,-2.58 -8.12887,-7.3 -10.62887,-18.9 -7.49997,-27.89 C 154.648,2453.36 407.66,2144.14 726.559,1939.84 V 1443.63 H 4116.37 v 500.32 c 317.69,205.5 572.38,516.09 714.37,869.8 2.62,9.41 0.9,20.59 -6.79,27.38 -7.5,7.5 -16.8,9.22 -27.58,4.53 -252.03,-136.91 -538.52,-208.82 -824.92,-208.82 -218.91,0 -436.41,40.89 -641.22,122.69 -376.17,149.42 -693.39,429.53 -896.99,788.01 -3.28,7.11 -11.4,10.43 -19.61,10.43 -8.16,0 -16.6,-3.32 -19.88,-10.43"
         transform="translate(0,2.5000001e-5)"
         id="path12" />
    </clipPath>
    <linearGradient
       x1="0"
       y1="0"
       x2="1"
       y2="0"
       gradientUnits="userSpaceOnUse"
       gradientTransform="matrix(17485.4,149.5,-149.5,17485.4,-959.25,794.055)"
       spreadMethod="pad"
       id="linearGradient18">
      <stop
         style="stop-opacity:1;stop-color:#9a6126"
         offset="0"
         id="stop13" />
      <stop
         style="stop-opacity:1;stop-color:#9a6126"
         offset="0.06"
         id="stop14" />
      <stop
         style="stop-opacity:1;stop-color:#ecb33e"
         offset="0.27"
         id="stop15" />
      <stop
         style="stop-opacity:1;stop-color:#f6d986"
         offset="0.51"
         id="stop16" />
      <stop
         style="stop-opacity:1;stop-color:#f8d280"
         offset="0.8"
         id="stop17" />
      <stop
         style="stop-opacity:1;stop-color:#e9af59"
         offset="1"
         id="stop18" />
    </linearGradient>
    <clipPath
       clipPathUnits="userSpaceOnUse"
       id="clipPath18">
      <path
         d="m 20.4688,1640.55 h 0.082 c -7.3125,-4.3 -13.01174,-10.9 -13.01174,-20.78 V 27.7305 c 0,-7.5 5.69924,-16.2813 13.01174,-21.4805 C 29.7695,2.03125 37.5391,2.03125 45.3516,7.96875 748.629,488.16 1570.47,742.461 2420.94,742.461 c 850.51,0 1670.62,-254.223 2375,-734.49225 5,-1.71875 8.83,-5.9375 13.32,-5.9375 l 10.7,4.21875 c 8.28,5.1992 12.5,13.9805 12.5,21.4805 V 1619.77 c 0,9.88 -4.22,16.48 -12.5,20.78 -3.51,2.42 -6.8,3.08 -9.92,3.08 -4.88,0 -9.18,-1.68 -14.18,-3.08 -704.3,-482.58 -1525.12,-735.198 -2375,-735.198 -849.92,0 -1672.419,252.498 -2375.6295,735.198 -4.2891,1.72 -8.7813,3.32 -13.6719,3.32 -3.5898,0 -7.2969,-0.9 -11.0898,-3.32"
         transform="translate(0,2.5000001e-5)"
         id="path18" />
    </clipPath>
    <linearGradient
       x1="0"
       y1="0"
       x2="1"
       y2="0"
       gradientUnits="userSpaceOnUse"
       gradientTransform="matrix(17485.4,149.5,-149.5,17485.4,-959.25,794.107)"
       spreadMethod="pad"
       id="linearGradient24">
      <stop
         style="stop-opacity:1;stop-color:#9a6126"
         offset="0"
         id="stop19" />
      <stop
         style="stop-opacity:1;stop-color:#9a6126"
         offset="0.06"
         id="stop20" />
      <stop
         style="stop-opacity:1;stop-color:#ecb33e"
         offset="0.27"
         id="stop21" />
      <stop
         style="stop-opacity:1;stop-color:#f6d986"
         offset="0.51"
         id="stop22" />
      <stop
         style="stop-opacity:1;stop-color:#f8d280"
         offset="0.8"
         id="stop23" />
      <stop
         style="stop-opacity:1;stop-color:#e9af59"
         offset="1"
         id="stop24" />
    </linearGradient>
    <clipPath
       clipPathUnits="userSpaceOnUse"
       id="clipPath24">
      <path
         d="m 20.4688,1640.55 h 0.082 c -7.3125,-4.3 -13.01174,-10.9 -13.01174,-20.78 V 27.7305 c 0,-7.5 5.69924,-16.2813 13.01174,-21.4805 C 29.7695,2.03125 37.5391,2.03125 45.3516,7.96875 748.629,488.16 1570.47,742.461 2420.94,742.461 c 850.51,0 1670.62,-254.223 2375,-734.49225 4.57,-1.55859 8.12,-5.19922 12.11,-5.82031 h 1.44 L 4819.96,6.25 c 8.28,5.1992 12.5,13.9805 12.5,21.4805 V 1619.77 c 0,9.88 -4.22,16.48 -12.5,20.78 -3.51,2.42 -6.8,3.08 -9.92,3.08 -4.88,0 -9.18,-1.68 -14.18,-3.08 -704.3,-482.58 -1525.12,-735.198 -2375,-735.198 -849.92,0 -1672.419,252.498 -2375.6295,735.198 -4.2891,1.72 -8.7813,3.32 -13.6719,3.32 -3.5898,0 -7.2969,-0.9 -11.0898,-3.32"
         transform="translate(0,2.5000001e-5)"
         id="path24" />
    </clipPath>
  </defs>
  <sodipodi:namedview
     id="namedview1"
     pagecolor="#ffffff"
     bordercolor="#000000"
     borderopacity="0.25"
     inkscape:showpageshadow="2"
     inkscape:pageopacity="0.0"
     inkscape:pagecheckerboard="0"
     inkscape:deskcolor="#d1d1d1">
    <inkscape:page
       x="0"
       y="0"
       inkscape:label="1"
       id="page1"
       width="645.33331"
       height="474.66666"
       margin="0"
       bleed="0" />
  </sodipodi:namedview>
  <g
     id="g1"
     inkscape:groupmode="layer"
     inkscape:label="1">
    <path
       id="path1"
       d="m 2393.75,3547.54 c -200.7,-355.27 -514.49,-633.59 -886.29,-783.99 -210.62,-84.41 -429.61,-126.71 -653.401,-126.71 -283.707,0 -557.028,66.91 -810.5082,200.19 -9.4102,5 -19.8008,4.22 -26.2813,-2.58 -8.12887,-7.3 -10.62887,-18.9 -7.49997,-27.89 C 154.648,2453.36 407.66,2144.14 726.559,1939.84 V 1443.63 H 4116.37 v 500.32 c 317.69,205.5 572.38,516.09 714.37,869.8 2.62,9.41 0.9,20.59 -6.79,27.38 -7.5,7.5 -16.8,9.22 -27.58,4.53 -252.03,-136.91 -538.52,-208.82 -824.92,-208.82 -218.91,0 -436.41,40.89 -641.22,122.69 -376.17,149.42 -693.39,429.53 -896.99,788.01 -3.28,7.11 -11.4,10.43 -19.61,10.43 -8.16,0 -16.6,-3.32 -19.88,-10.43"
       style="fill:url(#linearGradient6);fill-opacity:1;fill-rule:nonzero;stroke:none"
       transform="matrix(0.13333333,0,0,-0.13333333,0,474.66667)"
       clip-path="url(#clipPath6)" />
    <path
       id="path7"
       d="m 2393.75,3547.54 c -200.7,-355.27 -514.49,-633.59 -886.29,-783.99 -210.62,-84.41 -429.61,-126.71 -653.401,-126.71 -283.707,0 -557.028,66.91 -810.5082,200.19 -9.4102,5 -19.8008,4.22 -26.2813,-2.58 -8.12887,-7.3 -10.62887,-18.9 -7.49997,-27.89 C 154.648,2453.36 407.66,2144.14 726.559,1939.84 V 1443.63 H 4116.37 v 500.32 c 317.69,205.5 572.38,516.09 714.37,869.8 2.62,9.41 0.9,20.59 -6.79,27.38 -7.5,7.5 -16.8,9.22 -27.58,4.53 -252.03,-136.91 -538.52,-208.82 -824.92,-208.82 -218.91,0 -436.41,40.89 -641.22,122.69 -376.17,149.42 -693.39,429.53 -896.99,788.01 -3.28,7.11 -11.4,10.43 -19.61,10.43 -8.16,0 -16.6,-3.32 -19.88,-10.43"
       style="fill:url(#linearGradient12);fill-opacity:1;fill-rule:nonzero;stroke:none"
       transform="matrix(0.13333333,0,0,-0.13333333,0,474.66667)"
       clip-path="url(#clipPath12)" />
    <path
       id="path13"
       d="m 20.4688,1640.55 h 0.082 c -7.3125,-4.3 -13.01174,-10.9 -13.01174,-20.78 V 27.7305 c 0,-7.5 5.69924,-16.2813 13.01174,-21.4805 C 29.7695,2.03125 37.5391,2.03125 45.3516,7.96875 748.629,488.16 1570.47,742.461 2420.94,742.461 c 850.51,0 1670.62,-254.223 2375,-734.49225 5,-1.71875 8.83,-5.9375 13.32,-5.9375 l 10.7,4.21875 c 8.28,5.1992 12.5,13.9805 12.5,21.4805 V 1619.77 c 0,9.88 -4.22,16.48 -12.5,20.78 -3.51,2.42 -6.8,3.08 -9.92,3.08 -4.88,0 -9.18,-1.68 -14.18,-3.08 -704.3,-482.58 -1525.12,-735.198 -2375,-735.198 -849.92,0 -1672.419,252.498 -2375.6295,735.198 -4.2891,1.72 -8.7813,3.32 -13.6719,3.32 -3.5898,0 -7.2969,-0.9 -11.0898,-3.32"
       style="fill:url(#linearGradient18);fill-opacity:1;fill-rule:nonzero;stroke:none"
       transform="matrix(0.13333333,0,0,-0.13333333,0,474.66667)"
       clip-path="url(#clipPath18)" />
    <path
       id="path19"
       d="m 20.4688,1640.55 h 0.082 c -7.3125,-4.3 -13.01174,-10.9 -13.01174,-20.78 V 27.7305 c 0,-7.5 5.69924,-16.2813 13.01174,-21.4805 C 29.7695,2.03125 37.5391,2.03125 45.3516,7.96875 748.629,488.16 1570.47,742.461 2420.94,742.461 c 850.51,0 1670.62,-254.223 2375,-734.49225 4.57,-1.55859 8.12,-5.19922 12.11,-5.82031 h 1.44 L 4819.96,6.25 c 8.28,5.1992 12.5,13.9805 12.5,21.4805 V 1619.77 c 0,9.88 -4.22,16.48 -12.5,20.78 -3.51,2.42 -6.8,3.08 -9.92,3.08 -4.88,0 -9.18,-1.68 -14.18,-3.08 -704.3,-482.58 -1525.12,-735.198 -2375,-735.198 -849.92,0 -1672.419,252.498 -2375.6295,735.198 -4.2891,1.72 -8.7813,3.32 -13.6719,3.32 -3.5898,0 -7.2969,-0.9 -11.0898,-3.32"
       style="fill:url(#linearGradient24);fill-opacity:1;fill-rule:nonzero;stroke:none"
       transform="matrix(0.13333333,0,0,-0.13333333,0,474.66667)"
       clip-path="url(#clipPath24)" />
  </g>
</svg>
